<svg width="92" height="91" viewBox="0 0 92 91" fill="none" xmlns="http://www.w3.org/2000/svg">
<path d="M69.0229 66.2509V24.7428L41.4503 45.4968L69.0229 66.2509ZM1.10251 32.9712C-0.276114 31.5084 -0.322068 29.2227 1.0106 27.7141L6.52511 22.6399C7.4442 21.8171 9.69596 21.4514 11.3503 22.6399L27.0667 34.5712L63.5084 1.42873C64.9789 -0.0341132 67.5064 -0.628392 70.4015 0.880163L88.7832 9.61149C90.4376 10.5715 92 12.08 92 14.8686V76.5822C92 78.4107 90.6673 80.3764 89.2427 81.1535L69.0229 90.7534C67.5523 91.3477 64.7951 90.7991 63.8301 89.8392L26.9748 56.4681L11.3503 68.3537C9.60405 69.5423 7.4442 69.2223 6.52511 68.3537L1.0106 63.3252C-0.459931 61.8166 -0.276114 59.3481 1.24038 57.8395L15.0266 45.4968" fill="#1B2522"/>
</svg>
