<svg width="92" height="84" viewBox="0 0 92 84" fill="none" xmlns="http://www.w3.org/2000/svg">
<path d="M83.6364 0H8.36364C3.76364 0 0 3.78 0 8.4V58.8C0 63.462 3.76364 67.2 8.36364 67.2H37.6364V75.6H29.2727V84H62.7273V75.6H54.3636V67.2H83.6364C88.2782 67.2 92 63.462 92 58.8V8.4C92 3.78 88.2782 0 83.6364 0ZM83.6364 58.8H8.36364V8.4H83.6364V58.8ZM62.0582 26.04L57.8345 30.282L49.1782 21.756L53.4018 17.472C54.2382 16.59 55.66 16.548 56.6636 17.472L62.0582 22.722C62.9364 23.604 62.9782 25.032 62.0582 26.04ZM29.2727 41.622L46.7109 24.024L55.3673 32.76L37.9709 50.4H29.2727V41.622Z" fill="#1B2522"/>
</svg>
