<svg width="102" height="115" viewBox="0 0 102 115" fill="none" xmlns="http://www.w3.org/2000/svg">
<path d="M51 0C49.47 0 47.8833 0.396551 46.58 1.133L4.42 25.4926C1.7 27.0788 0 30.0246 0 33.197V81.803C0 84.9754 1.7 87.9212 4.42 89.5074L15.47 95.8522C20.8533 98.4581 22.6667 98.5148 25.16 98.5148C33.0933 98.5148 37.6833 93.6995 37.6833 85.3153V37.3325C37.6833 36.6527 37.1167 36.0862 36.4367 36.0862H31.1667C30.43 36.0862 29.8633 36.6527 29.8633 37.3325V85.3153C29.8633 89.0542 26.01 92.7365 19.8333 89.6207L8.21667 82.9926C7.82 82.7094 7.59333 82.2562 7.59333 81.803V33.197C7.59333 32.6872 7.82 32.234 8.21667 32.0074L50.3767 7.70443C50.7167 7.47783 51.2833 7.47783 51.6233 7.70443L93.7833 32.0074C94.18 32.234 94.4067 32.6872 94.4067 33.197V81.803C94.4067 82.2562 94.18 82.7094 93.7833 82.9926L51.6233 107.296C51.2833 107.522 50.7167 107.522 50.32 107.296L39.6667 100.837C39.2133 100.667 38.76 100.611 38.4767 100.781C35.4733 102.48 34.9067 102.82 32.13 103.67C31.45 103.897 30.3733 104.293 32.5267 105.483L46.58 113.81C47.94 114.603 49.4133 115 51 115C52.5867 115 54.06 114.603 55.42 113.81L97.58 89.5074C100.3 87.9212 102 84.9754 102 81.803V33.197C102 30.0246 100.3 27.0788 97.58 25.4926L55.42 1.133C54.1167 0.396551 52.5867 0 51 0ZM62.3333 34.8399C50.32 34.8399 43.1233 39.8818 43.1233 48.3793C43.1233 57.5 50.2633 60.1626 61.8233 61.2956C75.5933 62.6552 76.67 64.6946 76.67 67.4138C76.67 72.1158 72.8733 74.0985 64.0333 74.0985C52.8133 74.0985 50.4333 71.3227 49.5833 65.7709C49.47 65.2044 48.96 64.7512 48.3367 64.7512H42.8967C42.2167 64.7512 41.7067 65.2611 41.7067 65.9975C41.7067 73.0222 45.56 81.5197 64.0333 81.5197C77.35 81.5197 85 76.2512 85 67.0739C85 57.9532 78.88 55.5739 65.9033 53.8177C52.8133 52.1182 51.51 51.2118 51.51 48.1527C51.51 45.6035 52.6433 42.2044 62.3333 42.2044C70.8333 42.2044 74.1767 44.0739 75.48 49.9089C75.5933 50.4754 76.1033 50.8719 76.67 50.8719H82.1667C82.45 50.8719 82.79 50.7586 83.0167 50.4754C83.2433 50.2488 83.4133 49.9089 83.3 49.569C82.5067 39.4852 75.82 34.8399 62.3333 34.8399Z" fill="#1B2522"/>
</svg>
