<svg width="104" height="93" viewBox="0 0 104 93" fill="none" xmlns="http://www.w3.org/2000/svg">
<path d="M52 37.3615C56.9823 37.3615 61.0456 41.4231 61.0456 46.5C61.0456 51.3352 56.9823 55.4451 52 55.4451C47.0177 55.4451 42.9544 51.3352 42.9544 46.5C42.9544 41.4231 47.0177 37.3615 52 37.3615ZM29.6037 85.1814C32.6512 87.0187 39.3265 84.2143 47.0177 76.9616C44.5023 74.1088 42.0353 71.0143 39.7135 67.7747C35.747 67.3879 31.8288 66.8077 28.1042 66.0341C25.6372 76.3814 26.5563 83.4891 29.6037 85.1814ZM33.0381 57.4275L31.6353 54.9616C31.1033 56.3638 30.5712 57.7659 30.2326 59.1198C31.5386 59.4099 32.9898 59.6517 34.4893 59.8934C34.0056 59.0714 33.5219 58.2495 33.0381 57.4275ZM64.6735 53.7528L68.5916 46.5L64.6735 39.2472C63.2223 36.6846 61.6744 34.4121 60.2716 32.1395C57.6595 31.9945 54.9023 31.9945 52 31.9945C49.0977 31.9945 46.3405 31.9945 43.7284 32.1395C42.3256 34.4121 40.7777 36.6846 39.3265 39.2472L35.4084 46.5L39.3265 53.7528C40.7777 56.3154 42.3256 58.5879 43.7284 60.8605C46.3405 61.0055 49.0977 61.0055 52 61.0055C54.9023 61.0055 57.6595 61.0055 60.2716 60.8605C61.6744 58.5879 63.2223 56.3154 64.6735 53.7528ZM52 21.2604C51.0809 22.3241 50.1135 23.4362 49.146 24.7417C50.1135 24.7417 51.0326 24.7417 52 24.7417C52.9674 24.7417 53.8865 24.7417 54.854 24.7417C53.8865 23.4362 52.9191 22.3241 52 21.2604ZM52 71.7396C52.9191 70.6759 53.8865 69.5638 54.854 68.2583C53.8865 68.2583 52.9674 68.2583 52 68.2583C51.0326 68.2583 50.1135 68.2583 49.146 68.2583C50.1135 69.5638 51.0809 70.6759 52 71.7396ZM74.3479 7.81863C71.3488 5.98127 64.6735 8.78566 56.9823 16.0384C59.4977 18.8912 61.9646 21.9857 64.2865 25.2252C68.253 25.6121 72.1712 26.1923 75.8958 26.9659C78.3628 16.6186 77.4437 9.51094 74.3479 7.81863ZM70.9619 35.5725L72.3646 38.0385C72.8967 36.6363 73.4288 35.2341 73.7674 33.8802C72.4614 33.5901 71.0102 33.3483 69.5107 33.1066C69.9944 33.9286 70.4781 34.7505 70.9619 35.5725ZM77.9758 1.48456C85.0865 5.5461 85.8605 16.2318 82.8614 28.7066C95.1479 32.3329 104 38.3286 104 46.5C104 54.6714 95.1479 60.6671 82.8614 64.2934C85.8605 76.7682 85.0865 87.4539 77.9758 91.5154C70.9135 95.577 61.2874 90.9352 52 82.0869C42.7126 90.9352 33.0865 95.577 25.9758 91.5154C18.9135 87.4539 18.1395 76.7682 21.1386 64.2934C8.85209 60.6671 0 54.6714 0 46.5C0 38.3286 8.85209 32.3329 21.1386 28.7066C18.1395 16.2318 18.9135 5.5461 25.9758 1.48456C33.0865 -2.57699 42.7126 2.06478 52 10.9131C61.2874 2.06478 70.9135 -2.57699 77.9758 1.48456ZM76.573 46.5C78.2177 50.1264 79.6688 53.7528 80.8781 57.4275C91.0363 54.3813 96.7442 50.0297 96.7442 46.5C96.7442 42.9703 91.0363 38.6187 80.8781 35.5725C79.6688 39.2472 78.2177 42.8736 76.573 46.5ZM27.427 46.5C25.7823 42.8736 24.3312 39.2472 23.1219 35.5725C12.9637 38.6187 7.25581 42.9703 7.25581 46.5C7.25581 50.0297 12.9637 54.3813 23.1219 57.4275C24.3312 53.7528 25.7823 50.1264 27.427 46.5ZM70.9619 57.4275C70.4781 58.2495 69.9944 59.0714 69.5107 59.8934C71.0102 59.6517 72.4614 59.4099 73.7674 59.1198C73.4288 57.7659 72.8967 56.3638 72.3646 54.9616L70.9619 57.4275ZM56.9823 76.9616C64.6735 84.2143 71.3488 87.0187 74.3479 85.1814C77.4437 83.4891 78.3628 76.3814 75.8958 66.0341C72.1712 66.8077 68.253 67.3879 64.2865 67.7747C61.9646 71.0143 59.4977 74.1088 56.9823 76.9616ZM33.0381 35.5725C33.5219 34.7505 34.0056 33.9286 34.4893 33.1066C32.9898 33.3483 31.5386 33.5901 30.2326 33.8802C30.5712 35.2341 31.1033 36.6363 31.6353 38.0385L33.0381 35.5725ZM47.0177 16.0384C39.3265 8.78566 32.6512 5.98127 29.6037 7.81863C26.5563 9.51094 25.6372 16.6186 28.1042 26.9659C31.8288 26.1923 35.747 25.6121 39.7135 25.2252C42.0353 21.9857 44.5023 18.8912 47.0177 16.0384Z" fill="#1B2522"/>
</svg>
